<?xml version="1.0" encoding="UTF-8"?>
<svg width="231px" height="216px" viewBox="0 0 231 216" version="1.1" xmlns="http://www.w3.org/2000/svg" xmlns:xlink="http://www.w3.org/1999/xlink">
    <!-- Generator: sketchtool 54 (76480) - https://sketchapp.com -->
    <title>53B465AF-F2B8-4F61-953A-96F9346AE9D3</title>
    <desc>Created with sketchtool.</desc>
    <g id="approved" stroke="none" stroke-width="1" fill="none" fill-rule="evenodd">
        <g id="17-01-01-Mobile-Dev-Services" transform="translate(-89.000000, -3282.000000)">
            <g id="Group-33" transform="translate(70.000000, 3263.000000)">
                <g id="atom/pic/3-offers-options">
                    <path d="M114,178 C114,166.40202 123.40202,157 135,157 C146.59798,157 156,166.40202 156,178 C156,185.772962 151.776917,192.559571 145.500006,196.190571 L145.5,203.9375 L124.5,203.9375 L124.5,196.190574 C118.223083,192.559571 114,185.772962 114,178 Z" id="Combined-Shape" stroke="#DC3E36" fill="#DC3E36" stroke-linecap="round" stroke-linejoin="round"></path>
                    <g id="Group-10" transform="translate(114.000000, 157.000000)" stroke-linecap="round" stroke-linejoin="round">
                        <path d="M0,21 C0,9.40202025 9.40202025,0 21,0 C32.5979797,0 42,9.40202025 42,21 C42,28.7729623 37.776917,35.5595708 31.5000058,39.1905705 L31.5000022,56.4375 C31.500001,62.2364902 26.7989902,66.9375 21,66.9375 L21,66.9375 C15.2010101,66.9375 10.5,62.2364899 10.5,56.4375 L10.5,39.1905739 C4.22308299,35.5595708 0,28.7729623 0,21 Z" id="Combined-Shape" stroke="#DC3E36"></path>
                        <path d="M16.40625,50.53125 L33.46875,50.53125" id="Line-6" stroke="#DC3E36"></path>
                        <path d="M16.40625,54.46875 L33.46875,54.46875" id="Line-6" stroke="#DC3E36"></path>
                        <path d="M16.40625,58.40625 L33.46875,58.40625" id="Line-6" stroke="#DC3E36"></path>
                        <path d="M18.375,45.9375 L18.375,19.9375 C18.375,18.4877525 17.1997475,17.3125 15.75,17.3125 L15.75,17.3125 C14.3002525,17.3125 13.125,18.4877525 13.125,19.9375 L13.125,19.9375 C13.125,21.3872475 14.3002525,22.5625 15.75,22.5625 L26.25,22.5625 C27.6997475,22.5625 28.875,21.3872475 28.875,19.9375 L28.875,19.9375 C28.875,18.4877525 27.6997475,17.3125 26.25,17.3125 L26.25,17.3125 C24.8002525,17.3125 23.625,18.4877525 23.625,19.9375 L23.625,45.9375" id="Path-30" stroke="#26292E"></path>
                        <path d="M8.53125,46.59375 L33.46875,46.59375" id="Line-6" stroke="#DC3E36"></path>
                    </g>
                    <path d="M93.5023495,132.323532 L91.3363604,130.157543 C91.1410982,129.962281 91.1410982,129.645698 91.3363604,129.450436 L95.4504362,125.33636 C95.6456983,125.141098 95.9622808,125.141098 96.157543,125.33636 L98.3235321,127.502349 C99.0384419,127.114955 99.7973775,126.79846 100.590909,126.562293 L100.590909,123.5 C100.590909,123.223858 100.814767,123 101.090909,123 L106.909091,123 C107.185233,123 107.409091,123.223858 107.409091,123.5 L107.409091,126.562293 C108.202623,126.79846 108.961558,127.114955 109.676468,127.502349 L111.842457,125.33636 C112.037719,125.141098 112.354302,125.141098 112.549564,125.33636 L116.66364,129.450436 C116.858902,129.645698 116.858902,129.962281 116.66364,130.157543 L114.497651,132.323532 C114.885045,133.038442 115.20154,133.797377 115.437707,134.590909 L118.5,134.590909 C118.776142,134.590909 119,134.814767 119,135.090909 L119,140.909091 C119,141.185233 118.776142,141.409091 118.5,141.409091 L115.437707,141.409091 C115.20154,142.202623 114.885045,142.961558 114.497651,143.676468 L116.66364,145.842457 C116.858902,146.037719 116.858902,146.354302 116.66364,146.549564 L112.549564,150.66364 C112.354302,150.858902 112.037719,150.858902 111.842457,150.66364 L109.676468,148.497651 C108.961558,148.885045 108.202623,149.20154 107.409091,149.437707 L107.409091,152.5 C107.409091,152.776142 107.185233,153 106.909091,153 L101.090909,153 C100.814767,153 100.590909,152.776142 100.590909,152.5 L100.590909,149.437707 C99.7973775,149.20154 99.0384419,148.885045 98.3235321,148.497651 L96.157543,150.66364 C95.9622808,150.858902 95.6456983,150.858902 95.4504362,150.66364 L91.3363604,146.549564 C91.1410982,146.354302 91.1410982,146.037719 91.3363604,145.842457 L93.5023495,143.676468 C93.1149551,142.961558 92.7984598,142.202623 92.5622932,141.409091 L89.5,141.409091 C89.2238576,141.409091 89,141.185233 89,140.909091 L89,135.090909 C89,134.814767 89.2238576,134.590909 89.5,134.590909 L92.5622932,134.590909 C92.7984598,133.797377 93.1149551,133.038442 93.5023495,132.323532 Z M104,143.795455 C107.200741,143.795455 109.795455,141.200741 109.795455,138 C109.795455,134.799259 107.200741,132.204545 104,132.204545 C100.799259,132.204545 98.2045455,134.799259 98.2045455,138 C98.2045455,141.200741 100.799259,143.795455 104,143.795455 Z" id="Combined-Shape" stroke="#DC3E36" stroke-linecap="round" stroke-linejoin="round" transform="translate(104.000000, 138.000000) rotate(-20.000000) translate(-104.000000, -138.000000) "></path>
                    <path d="M149.003133,108.431376 L145.997296,105.425539 C145.802034,105.230277 145.802034,104.913695 145.997296,104.718433 L151.718433,98.997296 C151.913695,98.8020339 152.230277,98.8020339 152.425539,98.997296 L155.431376,102.003133 C156.384589,101.486607 157.396503,101.064613 158.454545,100.749724 L158.454545,96.5 C158.454545,96.2238576 158.678403,96 158.954545,96 L167.045455,96 C167.321597,96 167.545455,96.2238576 167.545455,96.5 L167.545455,100.749724 C168.603497,101.064613 169.615411,101.486607 170.568624,102.003133 L173.574461,98.997296 C173.769723,98.8020339 174.086305,98.8020339 174.281567,98.997296 L180.002704,104.718433 C180.197966,104.913695 180.197966,105.230277 180.002704,105.425539 L176.996867,108.431376 C177.513393,109.384589 177.935387,110.396503 178.250276,111.454545 L182.5,111.454545 C182.776142,111.454545 183,111.678403 183,111.954545 L183,120.045455 C183,120.321597 182.776142,120.545455 182.5,120.545455 L178.250276,120.545455 C177.935387,121.603497 177.513393,122.615411 176.996867,123.568624 L180.002704,126.574461 C180.197966,126.769723 180.197966,127.086305 180.002704,127.281567 L174.281567,133.002704 C174.086305,133.197966 173.769723,133.197966 173.574461,133.002704 L170.568624,129.996867 C169.615411,130.513393 168.603497,130.935387 167.545455,131.250276 L167.545455,135.5 C167.545455,135.776142 167.321597,136 167.045455,136 L158.954545,136 C158.678403,136 158.454545,135.776142 158.454545,135.5 L158.454545,131.250276 C157.396503,130.935387 156.384589,130.513393 155.431376,129.996867 L152.425539,133.002704 C152.230277,133.197966 151.913695,133.197966 151.718433,133.002704 L145.997296,127.281567 C145.802034,127.086305 145.802034,126.769723 145.997296,126.574461 L149.003133,123.568624 C148.486607,122.615411 148.064613,121.603497 147.749724,120.545455 L143.5,120.545455 C143.223858,120.545455 143,120.321597 143,120.045455 L143,111.954545 C143,111.678403 143.223858,111.454545 143.5,111.454545 L147.749724,111.454545 C148.064613,110.396503 148.486607,109.384589 149.003133,108.431376 Z M163,123.727273 C167.267655,123.727273 170.727273,120.267655 170.727273,116 C170.727273,111.732345 167.267655,108.272727 163,108.272727 C158.732345,108.272727 155.272727,111.732345 155.272727,116 C155.272727,120.267655 158.732345,123.727273 163,123.727273 Z" id="Combined-Shape" stroke="#DC3E36" stroke-linecap="round" stroke-linejoin="round"></path>
                    <path d="M83.7550906,57.2009862 L78.6496352,52.0955308 C78.454373,51.9002687 78.454373,51.5836862 78.6496352,51.388424 L88.388424,41.6496352 C88.5836862,41.454373 88.9002687,41.454373 89.0955308,41.6496352 L94.2009862,46.7550906 C95.7499574,45.9157361 97.3943178,45.2299962 99.1136364,44.7183019 L99.1136364,37.5 C99.1136364,37.2238576 99.337494,37 99.6136364,37 L113.386364,37 C113.662506,37 113.886364,37.2238576 113.886364,37.5 L113.886364,44.7183019 C115.605682,45.2299962 117.250043,45.9157361 118.799014,46.7550906 L123.904469,41.6496352 C124.099731,41.454373 124.416314,41.454373 124.611576,41.6496352 L134.350365,51.388424 C134.545627,51.5836862 134.545627,51.9002687 134.350365,52.0955308 L129.244909,57.2009862 C130.084264,58.7499574 130.770004,60.3943178 131.281698,62.1136364 L138.5,62.1136364 C138.776142,62.1136364 139,62.337494 139,62.6136364 L139,76.3863636 C139,76.662506 138.776142,76.8863636 138.5,76.8863636 L131.281698,76.8863636 C130.770004,78.6056822 130.084264,80.2500426 129.244909,81.7990138 L134.350365,86.9044692 C134.545627,87.0997313 134.545627,87.4163138 134.350365,87.611576 L124.611576,97.3503648 C124.416314,97.545627 124.099731,97.545627 123.904469,97.3503648 L118.799014,92.2449094 C117.250043,93.0842639 115.605682,93.7700038 113.886364,94.2816981 L113.886364,101.5 C113.886364,101.776142 113.662506,102 113.386364,102 L99.6136364,102 C99.337494,102 99.1136364,101.776142 99.1136364,101.5 L99.1136364,94.2816981 C97.3943178,93.7700038 95.7499574,93.0842639 94.2009862,92.2449094 L89.0955308,97.3503648 C88.9002687,97.545627 88.5836862,97.545627 88.388424,97.3503648 L78.6496352,87.611576 C78.454373,87.4163138 78.454373,87.0997313 78.6496352,86.9044692 L83.7550906,81.7990138 C82.9157361,80.2500426 82.2299962,78.6056822 81.7183019,76.8863636 L74.5,76.8863636 C74.2238576,76.8863636 74,76.662506 74,76.3863636 L74,62.6136364 C74,62.337494 74.2238576,62.1136364 74.5,62.1136364 L81.7183019,62.1136364 C82.2299962,60.3943178 82.9157361,58.7499574 83.7550906,57.2009862 Z M106.5,82.0568182 C113.434939,82.0568182 119.056818,76.4349392 119.056818,69.5 C119.056818,62.5650608 113.434939,56.9431818 106.5,56.9431818 C99.5650608,56.9431818 93.9431818,62.5650608 93.9431818,69.5 C93.9431818,76.4349392 99.5650608,82.0568182 106.5,82.0568182 Z" id="Combined-Shape" stroke="#DC3E36" stroke-linecap="round" stroke-linejoin="round" transform="translate(106.500000, 69.500000) rotate(60.000000) translate(-106.500000, -69.500000) "></path>
                    <polygon id="Polygon-2" stroke-opacity="0.5" stroke="#717171" points="33.660254 20 42.3205081 25 42.3205081 35 33.660254 40 25 35 25 25"></polygon>
                    <polygon id="Polygon-2" stroke-opacity="0.5" stroke="#717171" points="41.2631397 214 48.5262794 218.193376 48.5262794 226.580127 41.2631397 230.773503 34 226.580127 34 218.193376"></polygon>
                    <polygon id="Polygon-2" stroke-opacity="0.5" stroke="#717171" points="244.5 20 249 22.5980762 249 27.7942286 244.5 30.3923048 240 27.7942286 240 22.5980762"></polygon>
                    <polygon id="Polygon-2" stroke-opacity="0.5" stroke="#717171" points="182.5 224 187 226.598076 187 231.794229 182.5 234.392305 178 231.794229 178 226.598076"></polygon>
                    <polygon id="Polygon-2" stroke-opacity="0.5" stroke="#717171" points="229.26314 84 236.526279 88.1933757 236.526279 96.580127 229.26314 100.773503 222 96.580127 222 88.1933757"></polygon>
                    <path d="M151,62 L181,62 C190.388841,62 198,54.3888407 198,45 L198,45 C198,35.6111593 190.388841,28 181,28 L180.435832,28 C170.73541,28 162.871664,35.8637459 162.871664,45.5641681 L162.871664,86.1467382" id="Path-31" stroke-opacity="0.5" stroke="#717171" stroke-dasharray="6"></path>
                    <path d="M66,68 L66,68 C57.5516679,68 50.7029415,74.8487264 50.7029415,83.2970585 L50.7029415,156.465865 C50.7029415,164.964919 43.8130974,171.854763 35.314044,171.854763 L35.314044,171.854763 C26.8149907,171.854763 19.9251466,164.964919 19.9251466,156.465865 L19.9251466,155.91771 C19.9251466,147.115919 27.0604081,139.980657 35.8621993,139.980657 L79.0345033,139.980657" id="Path-32" stroke-opacity="0.5" stroke="#717171" stroke-dasharray="6"></path>
                    <path d="M190.999998,117 L190.999998,117 C197.718833,117 203.165525,122.446692 203.165525,129.165527 L203.165525,193.140101 C203.165525,201.930962 210.291927,209.057364 219.082788,209.057364 L219.082788,209.057364 C227.87365,209.057364 235.000052,201.930962 235.000052,193.140101 L235.000052,193.019775 C235.000052,184.16246 227.819779,176.982187 218.962463,176.982187 L167.999998,176.982187" id="Path-33" stroke-opacity="0.5" stroke="#717171" stroke-dasharray="6"></path>
                </g>
            </g>
        </g>
    </g>
</svg>