<?xml version="1.0" encoding="UTF-8"?>
<svg width="146px" height="40px" viewBox="0 0 146 40" version="1.1" xmlns="http://www.w3.org/2000/svg" xmlns:xlink="http://www.w3.org/1999/xlink">
    <!-- Generator: Sketch 54 (76480) - https://sketchapp.com -->
    <title>pic_logo</title>
    <desc>Created with Sketch.</desc>
    <defs>
        <path d="M17.1718725,-0.244576005 L32.513432,8.9345051 C32.8152407,9.11508166 33,9.44093044 33,9.79263538 L33,28.2073646 C33,28.5590696 32.8152407,28.8849183 32.513432,29.0654949 L17.1718725,38.244576 C16.8583924,38.4321357 16.4675833,38.4338339 16.1524852,38.2490054 L0.494044716,29.064168 C0.188004179,28.8846525 -3.28721799e-15,28.5564133 -3.33066907e-15,28.2016083 L-6.99440506e-15,9.79839172 C-7.03785614e-15,9.44358667 0.188004179,9.1153475 0.494044716,8.93583201 L16.1524852,-0.249005428 C16.4675833,-0.433833868 16.8583924,-0.432135732 17.1718725,-0.244576005 Z" id="path-1"></path>
    </defs>
    <g id="approved" stroke="none" stroke-width="1" fill="none" fill-rule="evenodd">
        <g id="-" transform="translate(-171.000000, -1137.000000)">
            <g id="pic_logo" transform="translate(171.000000, 1121.000000)">
                <g id="atom/logo/text/white" transform="translate(44.000000, 29.000000)" fill="#E6E8EC" stroke="#E6E8EC" stroke-width="0.6">
                    <path d="M0,14.2851852 L0,0.214814815 L1.18148148,0.214814815 L1.18148148,6.74518519 L7.23925926,6.74518519 L7.23925926,0.214814815 L8.42074074,0.214814815 L8.42074074,14.2851852 L7.23925926,14.2851852 L7.23925926,7.84074074 L1.18148148,7.84074074 L1.18148148,14.2851852 L0,14.2851852 Z M13.0203704,5.38555556 C13.7006207,4.46184723 14.6923392,4 15.9955556,4 C17.2987719,4 18.2690092,4.42962533 18.9062963,5.28888889 C19.5435834,6.14815244 19.8622222,7.29382 19.8622222,8.72592593 L19.7977778,9.8 L13.2244444,9.8 C13.2960497,10.8740794 13.5824666,11.7440707 14.0837037,12.41 C14.5849408,13.0759293 15.2759215,13.4088889 16.1566667,13.4088889 C17.0374118,13.4088889 18.0720928,13.2012366 19.2607407,12.7859259 L19.582963,13.86 C18.4229572,14.3039528 17.334573,14.5259259 16.3177778,14.5259259 C14.914314,14.5259259 13.8438308,14.0569183 13.1062963,13.1188889 C12.3687617,12.1808595 12,10.8884033 12,9.24148148 C12,7.59455967 12.3401201,6.30926388 13.0203704,5.38555556 Z M15.857037,5 C14.0525836,5 13.1002474,6.21011136 13,8.63037037 L18.4133333,8.63037037 C18.4133333,6.21011136 17.5612431,5 15.857037,5 Z M26.1911111,13.102963 C26.7209903,13.102963 27.2974043,12.934693 27.9203704,12.5981481 C28.5433364,12.2616033 28.9980233,11.9501249 29.2844444,11.6637037 L29.2844444,9.10740741 C28.3392545,9.03580211 27.4370413,9 26.5777778,9 C25.7185142,9 25.0740762,9.18259077 24.6444444,9.54777778 C24.2148127,9.91296479 24,10.4034537 24,11.0192593 C24,12.408402 24.7303631,13.102963 26.1911111,13.102963 Z M26.3725926,14.5259259 C25.3271553,14.5259259 24.5037067,14.2574101 23.9022222,13.7203704 C23.3007377,13.1833306 23,12.4207457 23,11.4325926 C23,10.4444395 23.3293794,9.67827433 23.9881481,9.13407407 C24.6469169,8.57555276 25.5204884,8.2962963 26.6088889,8.2962963 C27.6972894,8.2962963 28.656786,8.33925883 29.4874074,8.42518519 C29.4874074,7.15061091 29.3298781,6.28061961 29.0148148,5.81518519 C28.6997515,5.34975076 28.0624739,5.11703704 27.102963,5.11703704 C26.143452,5.11703704 25.0121053,5.34617055 23.7088889,5.80444444 L23.3866667,4.73037037 C24.7185252,4.24345436 25.9214761,4 26.9955556,4 C28.4133404,4 29.372837,4.31505858 29.8740741,4.94518519 C30.3753111,5.57531179 30.6259259,6.67801681 30.6259259,8.25333333 L30.6259259,12.7644444 L30.7977778,14.397037 L29.7022222,14.5044444 L29.4874074,13.2155556 C29.158023,13.5019767 28.6925956,13.7919738 28.0911111,14.0855556 C27.4896266,14.3791373 26.9167928,14.5259259 26.3725926,14.5259259 Z M42.0985185,0 L42.0985185,12.4807407 L42.3133333,14.3496296 L41.2177778,14.4785185 L41.002963,13.34 C39.9288835,14.0846951 38.9407453,14.457037 38.0385185,14.457037 C36.7639442,14.457037 35.7722258,13.9844492 35.0633333,13.0392593 C34.3544409,12.0940693 34,10.8087736 34,9.18333333 C34,7.55789311 34.3938232,6.27617753 35.1814815,5.33814815 C35.9691397,4.40011877 37.0432031,3.93111111 38.4037037,3.93111111 C39.205683,3.93111111 40.0577733,4.12444251 40.96,4.51111111 L40.96,0 L42.0985185,0 Z M35.7411111,12.1425926 C36.2351877,12.9087693 36.9476497,13.2918519 37.8785185,13.2918519 C38.8093874,13.2918519 39.7617235,12.8837078 40.7355556,12.0674074 L40.7355556,5.62296296 C40.4348133,5.47975237 40.023089,5.34012414 39.5003704,5.20407407 C38.9776517,5.06802401 38.5516066,5 38.2222222,5 C37.205427,5 36.4142004,5.36876174 35.8485185,6.1062963 C35.2828367,6.84383085 35,7.84270975 35,9.10296296 C35,10.3632162 35.2470346,11.3764159 35.7411111,12.1425926 Z M47.5681481,14.0703704 L46,0 L47.2244444,0 L48.6637037,12.9962963 L48.9,12.9962963 L50.7903704,6.20814815 L51.9288889,6.20814815 L53.7333333,12.9962963 L53.9911111,12.9962963 L55.4303704,0 L56.6548148,0 L55.0866667,14.0703704 L52.917037,14.0703704 L51.3703704,8.01259259 L51.3059259,8.01259259 L49.6948148,14.0703704 L47.5681481,14.0703704 Z M64.102963,4 C66.8382853,4 68.2059259,5.75430344 68.2059259,9.26296296 C68.2059259,12.7716225 66.8382853,14.5259259 64.102963,14.5259259 C61.3676406,14.5259259 60,12.7716225 60,9.26296296 C60,5.75430344 61.3676406,4 64.102963,4 Z M61,9.14592593 C61,11.9098904 61.9594966,13.2918519 63.8785185,13.2918519 C65.7975405,13.2918519 66.757037,11.9098904 66.757037,9.14592593 C66.757037,6.38196149 65.7975405,5 63.8785185,5 C61.9594966,5 61,6.38196149 61,9.14592593 Z M72,14.3325926 L72,13.2585185 L74.4488889,13.2585185 L74.4488889,5.20296296 L72,5.20296296 L72,4.12888889 L75.5874074,4.12888889 L75.6303704,5.37481481 C76.0886443,5.08839363 76.7330823,4.80197674 77.5637037,4.51555556 C78.3943251,4.22913437 79.1246882,4.05728424 79.7548148,4 L79.9911111,4 L79.9911111,5.26740741 L79.7548148,5.26740741 C79.1676514,5.31037059 78.4408685,5.45357903 77.5744444,5.69703704 C76.7080204,5.94049504 76.0600021,6.19110982 75.6303704,6.44888889 L75.6303704,13.2585185 L79.0674074,13.2585185 L79.0674074,14.3325926 L72,14.3325926 Z M83,14.2851852 L83,0 L84.1385185,0 L84.1385185,8.7 L85.9644444,8.48518519 C86.8523501,7.39678468 87.7187612,6.15087121 88.5637037,4.74740741 L88.9718519,4.08148148 L90.2607407,4.08148148 C89.1436981,6.0434666 88.0553139,7.66172202 86.9955556,8.9362963 C87.9980297,10.2108706 88.986168,11.7145592 89.96,13.4474074 L90.4325926,14.2851852 L89.1007407,14.2851852 C88.1269087,12.4520896 87.1244496,10.8696363 86.0933333,9.53777778 L84.1385185,9.73111111 L84.1385185,14.2851852 L83,14.2851852 Z M94,13.8814815 L94.2792593,12.7644444 C95.6970441,13.2370394 96.7925887,13.4733333 97.5659259,13.4733333 C98.3392631,13.4733333 98.9371584,13.3050634 99.3596296,12.9685185 C99.7821009,12.6319736 99.9933333,12.1844472 99.9933333,11.6259259 C99.9933333,11.0674046 99.8250634,10.6556803 99.4885185,10.3907407 C99.1519736,10.1258011 98.4538325,9.87160616 97.3940741,9.62814815 C96.3343157,9.38469014 95.5395088,9.03382945 95.0096296,8.57555556 C94.4797504,8.14592378 94.2148148,7.50148578 94.2148148,6.64222222 C94.2148148,5.78295867 94.540614,5.12778003 95.1922222,4.67666667 C95.8438304,4.2255533 96.68518,4 97.7162963,4 C98.7474126,4 99.8644384,4.22913351 101.067407,4.68740741 L100.766667,5.69703704 C99.5493766,5.29604738 98.5683988,5.09555556 97.8237037,5.09555556 C97.0790086,5.09555556 96.491854,5.22444316 96.0622222,5.48222222 C95.6325904,5.76864341 95.4177778,6.15530621 95.4177778,6.64222222 C95.4177778,7.12913824 95.607529,7.50864061 95.987037,7.78074074 C96.3665451,8.05284087 97.1004884,8.32493691 98.1888889,8.59703704 C99.2772894,8.86913716 100.050615,9.21641764 100.508889,9.63888889 C100.967163,10.0613601 101.196296,10.7236992 101.196296,11.6259259 C101.196296,12.5281527 100.888398,13.2441949 100.272593,13.7740741 C99.6711081,14.3039533 98.8118574,14.5688889 97.6948148,14.5688889 C96.5777722,14.5688889 95.3461796,14.3397554 94,13.8814815 Z" id="HeadWorks"></path>
                </g>
                <g id="atom/logo/white" transform="translate(0.000000, 17.000000)">
                    <g id="Combined-Shape-+-Combined-Shape-Copy-+-Combined-Shape-Copy-2-Mask">
                        <mask id="mask-2" fill="white">
                            <use xlink:href="#path-1"></use>
                        </mask>
                        <use id="Mask" fill="#E6E8EC" xlink:href="#path-1"></use>
                        <path d="M18.6742683,1.82591874 L17.6420733,0.793723756 C17.4468112,0.59846161 17.4468112,0.28187912 17.6420733,0.0866169744 L19.586617,-1.85792667 C19.7818791,-2.05318882 20.0984616,-2.05318882 20.2937238,-1.85792667 L21.3259187,-0.825731685 C21.7191191,-1.03879859 22.1365337,-1.21287103 22.5729761,-1.34276264 L22.5729761,-2.8020239 C22.5729761,-3.07816628 22.7968337,-3.3020239 23.0729761,-3.3020239 L25.8229761,-3.3020239 C26.0991185,-3.3020239 26.3229761,-3.07816628 26.3229761,-2.8020239 L26.3229761,-1.34276264 C26.7594185,-1.21287103 27.1768331,-1.03879859 27.5700334,-0.825731685 L28.6022284,-1.85792667 C28.7974906,-2.05318882 29.1140731,-2.05318882 29.3093352,-1.85792667 L31.2538789,0.0866169744 C31.449141,0.28187912 31.449141,0.59846161 31.2538789,0.793723756 L30.2216839,1.82591874 C30.4347508,2.21911912 30.6088232,2.6365337 30.7387148,3.0729761 L32.1979761,3.0729761 C32.4741185,3.0729761 32.6979761,3.29683372 32.6979761,3.5729761 L32.6979761,6.3229761 C32.6979761,6.59911847 32.4741185,6.8229761 32.1979761,6.8229761 L30.7387148,6.8229761 C30.6088232,7.25941849 30.4347508,7.67683307 30.2216839,8.07003345 L31.2538789,9.10222843 C31.449141,9.29749058 31.449141,9.61407307 31.2538789,9.80933522 L29.3093352,11.7538789 C29.1140731,11.949141 28.7974906,11.949141 28.6022284,11.7538789 L27.5700334,10.7216839 C27.1768331,10.9347508 26.7594185,11.1088232 26.3229761,11.2387148 L26.3229761,12.6979761 C26.3229761,12.9741185 26.0991185,13.1979761 25.8229761,13.1979761 L23.0729761,13.1979761 C22.7968337,13.1979761 22.5729761,12.9741185 22.5729761,12.6979761 L22.5729761,11.2387148 C22.1365337,11.1088232 21.7191191,10.9347508 21.3259187,10.7216839 L20.2937238,11.7538789 C20.0984616,11.949141 19.7818791,11.949141 19.586617,11.7538789 L17.6420733,9.80933522 C17.4468112,9.61407307 17.4468112,9.29749058 17.6420733,9.10222843 L18.6742683,8.07003345 C18.4612014,7.67683307 18.287129,7.25941849 18.1572374,6.8229761 L16.6979761,6.8229761 C16.4218337,6.8229761 16.1979761,6.59911847 16.1979761,6.3229761 L16.1979761,3.5729761 C16.1979761,3.29683372 16.4218337,3.0729761 16.6979761,3.0729761 L18.1572374,3.0729761 C18.287129,2.6365337 18.4612014,2.21911912 18.6742683,1.82591874 Z M24.4479761,8.1354761 C26.2083837,8.1354761 27.6354761,6.70838374 27.6354761,4.9479761 C27.6354761,3.18756846 26.2083837,1.7604761 24.4479761,1.7604761 C22.6875685,1.7604761 21.2604761,3.18756846 21.2604761,4.9479761 C21.2604761,6.70838374 22.6875685,8.1354761 24.4479761,8.1354761 Z" id="Combined-Shape" fill="#1E1F21" mask="url(#mask-2)" transform="translate(24.447976, 4.947976) rotate(-13.300000) translate(-24.447976, -4.947976) "></path>
                        <path d="M17.0405896,23.5672974 L16.5962878,23.1229956 C16.4010257,22.9277335 16.4010257,22.611151 16.5962878,22.4158889 L17.4158889,21.5962878 C17.611151,21.4010257 17.9277335,21.4010257 18.1229956,21.5962878 L18.5672974,22.0405896 C18.7936855,21.9179147 19.0340151,21.8176911 19.2853001,21.7429051 L19.2853001,21.1148456 C19.2853001,20.8387032 19.5091577,20.6148456 19.7853001,20.6148456 L20.944391,20.6148456 C21.2205334,20.6148456 21.444391,20.8387032 21.444391,21.1148456 L21.444391,21.7429051 C21.695676,21.8176911 21.9360056,21.9179147 22.1623937,22.0405896 L22.6066955,21.5962878 C22.8019576,21.4010257 23.1185401,21.4010257 23.3138022,21.5962878 L24.1334033,22.4158889 C24.3286654,22.611151 24.3286654,22.9277335 24.1334033,23.1229956 L23.6891016,23.5672974 C23.8117764,23.7936855 23.912,24.0340151 23.986786,24.2853001 L24.6148456,24.2853001 C24.8909879,24.2853001 25.1148456,24.5091577 25.1148456,24.7853001 L25.1148456,25.944391 C25.1148456,26.2205334 24.8909879,26.444391 24.6148456,26.444391 L23.986786,26.444391 C23.912,26.695676 23.8117764,26.9360056 23.6891016,27.1623937 L24.1334033,27.6066955 C24.3286654,27.8019576 24.3286654,28.1185401 24.1334033,28.3138022 L23.3138022,29.1334033 C23.1185401,29.3286654 22.8019576,29.3286654 22.6066955,29.1334033 L22.1623937,28.6891016 C21.9360056,28.8117764 21.695676,28.912 21.444391,28.986786 L21.444391,29.6148456 C21.444391,29.8909879 21.2205334,30.1148456 20.944391,30.1148456 L19.7853001,30.1148456 C19.5091577,30.1148456 19.2853001,29.8909879 19.2853001,29.6148456 L19.2853001,28.986786 C19.0340151,28.912 18.7936855,28.8117764 18.5672974,28.6891016 L18.1229956,29.1334033 C17.9277335,29.3286654 17.611151,29.3286654 17.4158889,29.1334033 L16.5962878,28.3138022 C16.4010257,28.1185401 16.4010257,27.8019576 16.5962878,27.6066955 L17.0405896,27.1623937 C16.9179147,26.9360056 16.8176911,26.695676 16.7429051,26.444391 L16.1148456,26.444391 C15.8387032,26.444391 15.6148456,26.2205334 15.6148456,25.944391 L15.6148456,24.7853001 C15.6148456,24.5091577 15.8387032,24.2853001 16.1148456,24.2853001 L16.7429051,24.2853001 C16.8176911,24.0340151 16.9179147,23.7936855 17.0405896,23.5672974 Z M20.3648456,27.2000728 C21.3784136,27.2000728 22.2000728,26.3784136 22.2000728,25.3648456 C22.2000728,24.3512775 21.3784136,23.5296183 20.3648456,23.5296183 C19.3512775,23.5296183 18.5296183,24.3512775 18.5296183,25.3648456 C18.5296183,26.3784136 19.3512775,27.2000728 20.3648456,27.2000728 Z" id="Combined-Shape-Copy-2" fill="#1E1F21" mask="url(#mask-2)" transform="translate(20.364846, 25.364846) rotate(-8.000000) translate(-20.364846, -25.364846) "></path>
                        <path d="M7.52506545,12.8553037 L6.66083996,11.9910782 C6.46557782,11.7958161 6.46557782,11.4792336 6.66083996,11.2839714 L8.28397144,9.66083996 C8.47923358,9.46557782 8.79581607,9.46557782 8.99107822,9.66083996 L9.85530371,10.5250655 C10.2008434,10.3378248 10.5676623,10.1848521 10.9512026,10.0707049 L10.9512026,8.84892986 C10.9512026,8.57278749 11.1750602,8.34892986 11.4512026,8.34892986 L13.7466571,8.34892986 C14.0227995,8.34892986 14.2466571,8.57278749 14.2466571,8.84892986 L14.2466571,10.0707049 C14.6301974,10.1848521 14.9970163,10.3378248 15.342556,10.5250655 L16.2067815,9.66083996 C16.4020437,9.46557782 16.7186261,9.46557782 16.9138883,9.66083996 L18.5370198,11.2839714 C18.7322819,11.4792336 18.7322819,11.7958161 18.5370198,11.9910782 L17.6727943,12.8553037 C17.8600349,13.2008434 18.0130076,13.5676623 18.1271548,13.9512026 L19.3489299,13.9512026 C19.6250722,13.9512026 19.8489299,14.1750602 19.8489299,14.4512026 L19.8489299,16.7466571 C19.8489299,17.0227995 19.6250722,17.2466571 19.3489299,17.2466571 L18.1271548,17.2466571 C18.0130076,17.6301974 17.8600349,17.9970163 17.6727943,18.342556 L18.5370198,19.2067815 C18.7322819,19.4020437 18.7322819,19.7186261 18.5370198,19.9138883 L16.9138883,21.5370198 C16.7186261,21.7322819 16.4020437,21.7322819 16.2067815,21.5370198 L15.342556,20.6727943 C14.9970163,20.8600349 14.6301974,21.0130076 14.2466571,21.1271548 L14.2466571,22.3489299 C14.2466571,22.6250722 14.0227995,22.8489299 13.7466571,22.8489299 L11.4512026,22.8489299 C11.1750602,22.8489299 10.9512026,22.6250722 10.9512026,22.3489299 L10.9512026,21.1271548 C10.5676623,21.0130076 10.2008434,20.8600349 9.85530371,20.6727943 L8.99107822,21.5370198 C8.79581607,21.7322819 8.47923358,21.7322819 8.28397144,21.5370198 L6.66083996,19.9138883 C6.46557782,19.7186261 6.46557782,19.4020437 6.66083996,19.2067815 L7.52506545,18.342556 C7.33782484,17.9970163 7.18485208,17.6301974 7.07070491,17.2466571 L5.84892986,17.2466571 C5.57278749,17.2466571 5.34892986,17.0227995 5.34892986,16.7466571 L5.34892986,14.4512026 C5.34892986,14.1750602 5.57278749,13.9512026 5.84892986,13.9512026 L7.07070491,13.9512026 C7.18485208,13.5676623 7.33782484,13.2008434 7.52506545,12.8553037 Z M12.5989299,18.4000662 C14.1459548,18.4000662 15.4000662,17.1459548 15.4000662,15.5989299 C15.4000662,14.051905 14.1459548,12.7977935 12.5989299,12.7977935 C11.051905,12.7977935 9.7977935,14.051905 9.7977935,15.5989299 C9.7977935,17.1459548 11.051905,18.4000662 12.5989299,18.4000662 Z" id="Combined-Shape-Copy" fill="#1E1F21" mask="url(#mask-2)" transform="translate(12.598930, 15.598930) rotate(-12.000000) translate(-12.598930, -15.598930) "></path>
                    </g>
                </g>
            </g>
        </g>
    </g>
</svg>